<svg xmlns="http://www.w3.org/2000/svg" viewBox="0 0 300 300"><rect width="300" height="300" rx="16" fill="#1F74B5"/><rect x="20.5" y="20.5" width="259" height="259" rx="7" fill="#fff"/><g fill="#051627"><path fill-rule="evenodd" d="M33.8 30.8H266.2a3 3 0 0 1 3 3V266.2a3 3 0 0 1 -3 3H33.8a3 3 0 0 1 -3 -3V33.8a3 3 0 0 1 3 -3ZM39 39V261H261V39Z"/><path d="M35.9 36.0 35.9 264.0 264.3 264.0 264.3 36.0ZM42.1 47.6 43.1 47.2 44.9 48.3 62.2 61.6 72.8 70.5 74.2 70.9 74.2 69.0 69.9 61.1 58.1 41.8 57.9 40.4 58.4 39.9 60.6 40.6 74.4 52.1 77.7 54.1 77.3 52.3 69.8 41.5 69.0 39.7 69.6 38.7 72.3 38.3 73.9 39.1 91.0 52.6 91.6 52.6 91.5 51.4 87.2 43.3 86.4 40.8 86.9 40.2 88.4 40.4 92.2 42.9 93.5 43.3 93.8 42.8 93.1 40.2 94.5 39.0 259.4 39.0 260.6 39.5 261.5 40.8 261.5 99.3 260.8 100.4 259.7 100.6 254.4 96.0 252.9 95.7 253.1 97.5 255.6 102.9 257.1 107.3 256.7 108.7 255.1 107.8 247.2 101.0 246.3 100.6 245.7 100.8 246.2 102.9 253.6 116.7 253.8 118.3 253.4 118.6 251.7 117.9 241.0 109.7 240.3 109.9 241.5 113.3 247.9 125.4 261.1 147.9 261.6 156.7 261.5 171.2 261.1 173.6 260.6 174.0 259.6 173.9 249.7 165.0 248.3 164.1 247.4 164.5 248.2 167.4 258.7 191.9 258.8 193.5 257.9 193.7 255.9 192.2 235.8 172.3 234.5 171.7 233.9 172.1 234.7 175.0 241.3 189.5 245.2 199.3 253.7 218.4 253.7 219.6 253.2 219.7 249.7 216.9 232.7 200.2 230.7 198.9 230.2 199.5 233.2 207.5 238.3 218.8 252.6 248.6 252.6 250.1 251.8 250.4 249.2 248.7 229.2 232.7 226.9 231.5 226.5 231.8 226.6 233.2 235.4 251.0 235.4 252.3 234.5 252.4 224.8 244.6 209.3 230.6 207.7 230.0 207.5 230.8 219.7 249.3 221.6 252.9 220.8 253.4 218.5 252.0 202.0 238.3 199.5 236.9 199.4 238.0 200.4 240.8 208.0 257.6 208.4 259.4 207.7 260.3 205.9 259.5 193.3 248.1 191.4 247.2 192.1 250.7 195.5 259.3 195.3 260.4 193.9 261.2 42.6 261.2 40.6 260.4 39.4 258.5 38.9 254.6 39.0 102.6 39.9 101.1 41.3 101.2 49.2 108.5 51.1 109.2 51.1 107.6 43.2 90.1 42.3 87.1 42.9 86.4 44.4 86.7 52.2 92.2 53.6 92.8 54.2 92.6 53.0 89.8 41.7 74.4 41.6 73.3 42.1 72.8 42.9 73.0 62.2 87.0 65.0 88.1 64.1 85.2 42.1 48.8Z"/><path fill-rule="evenodd" d="M89.2 150a60.8 60.8 0 1 0 121.6 0a60.8 60.8 0 1 0 -121.6 0ZM104.65 150a45.35 45.35 0 1 1 90.7 0a45.35 45.35 0 1 1 -90.7 0ZM120.51 150a29.49 29.49 0 1 0 58.98 0a29.49 29.49 0 1 0 -58.98 0ZM131.21 150a18.79 18.79 0 1 1 37.58 0a18.79 18.79 0 1 1 -37.58 0Z"/></g><path d="M168.79 150.00L247.11 150.00M163.29 163.29L218.67 218.67M150.00 168.79L150.00 247.11M136.71 163.29L81.33 218.67M131.21 150.00L52.89 150.00M136.71 136.71L81.33 81.33M150.00 131.21L150.00 52.89M163.29 136.71L218.67 81.33" stroke="#051627" stroke-width="10.4" stroke-linecap="round" fill="none"/><circle cx="150" cy="150" r="18.79" fill="#fff"/><g fill="#fff"><circle cx="200.92" cy="164.41" r="2.32"/><circle cx="196.20" cy="175.82" r="2.32"/><circle cx="175.82" cy="196.20" r="2.32"/><circle cx="164.41" cy="200.92" r="2.32"/><circle cx="135.59" cy="200.92" r="2.32"/><circle cx="124.18" cy="196.20" r="2.32"/><circle cx="103.80" cy="175.82" r="2.32"/><circle cx="99.08" cy="164.41" r="2.32"/><circle cx="99.08" cy="135.59" r="2.32"/><circle cx="103.80" cy="124.18" r="2.32"/><circle cx="124.18" cy="103.80" r="2.32"/><circle cx="135.59" cy="99.08" r="2.32"/><circle cx="164.41" cy="99.08" r="2.32"/><circle cx="175.82" cy="103.80" r="2.32"/><circle cx="196.20" cy="124.18" r="2.32"/><circle cx="200.92" cy="135.59" r="2.32"/></g></svg>