<svg xmlns="http://www.w3.org/2000/svg" viewBox="0 0 900 720" fill="none"><defs><linearGradient id="o" x1="0" x2="1"><stop offset="0" stop-color="#5EAAE3" stop-opacity="0"/><stop offset="1" stop-color="#5EAAE3" stop-opacity=".85"/></linearGradient><radialGradient id="g" cx="360" cy="360" r="260" gradientUnits="userSpaceOnUse"><stop offset="0" stop-color="#2485D0" stop-opacity=".16"/><stop offset="1" stop-color="#2485D0" stop-opacity="0"/></radialGradient></defs><circle cx="360" cy="360" r="260" fill="url(#g)"/><path d="M443.4 443.4 L276.6 443.4 L276.6 276.6 L443.4 276.6Z M360.0 478.0 L242.0 360.0 L360.0 242.0 L478.0 360.0Z" stroke="#5EAAE3" stroke-opacity=".11"/><path d="M412.3 412.3 L307.7 412.3 L307.7 307.7 L412.3 307.7Z M360.0 434.0 L286.0 360.0 L360.0 286.0 L434.0 360.0Z" stroke="#5EAAE3" stroke-opacity=".16"/><g stroke-width="1"><path d="M900 40 C710 40 530 341 378 360" stroke="#5EAAE3" stroke-opacity="0.16" /><path d="M900 95 C710 95 530 344 378 360" stroke="#5EAAE3" stroke-opacity="0.21" /><path d="M900 150 C710 150 530 347 378 360" stroke="#5EAAE3" stroke-opacity="0.26" /><path d="M900 200 C710 200 530 350 378 360" stroke="#5EAAE3" stroke-opacity="0.31" /><path d="M900 245 C710 245 530 353 378 360" stroke="#5EAAE3" stroke-opacity="0.35" /><path d="M900 290 C710 290 530 356 378 360" stroke="#5EAAE3" stroke-opacity="0.39" /><path d="M900 330 C710 330 530 358 378 360" stroke="#5EAAE3" stroke-opacity="0.43" /><path d="M900 390 C710 390 530 362 378 360" stroke="#5EAAE3" stroke-opacity="0.43" /><path d="M900 430 C710 430 530 364 378 360" stroke="#5EAAE3" stroke-opacity="0.39" /><path d="M900 475 C710 475 530 367 378 360" stroke="#5EAAE3" stroke-opacity="0.35" /><path d="M900 520 C710 520 530 370 378 360" stroke="#5EAAE3" stroke-opacity="0.31" /><path d="M900 570 C710 570 530 373 378 360" stroke="#5EAAE3" stroke-opacity="0.26" /><path d="M900 625 C710 625 530 376 378 360" stroke="#5EAAE3" stroke-opacity="0.21" /><path d="M900 680 C710 680 530 379 378 360" stroke="#5EAAE3" stroke-opacity="0.16" /></g><circle cx="704.9" cy="206.2" r="2.2" fill="#5EAAE3" fill-opacity=".75"/><circle cx="598.6" cy="411.7" r="2.2" fill="#5EAAE3" fill-opacity=".75"/><circle cx="521.9" cy="332.1" r="2.2" fill="#5EAAE3" fill-opacity=".75"/><circle cx="651.2" cy="484.9" r="2.2" fill="#5EAAE3" fill-opacity=".75"/><circle cx="759.7" cy="334.4" r="2.2" fill="#5EAAE3" fill-opacity=".75"/><path d="M100 360 H338" stroke="url(#o)" stroke-width="1.2"/><circle cx="360" cy="360" r="22" stroke="#5EAAE3" stroke-opacity=".45"/><circle cx="360" cy="360" r="5.5" fill="#5EAAE3"/></svg>